<?xml version="1.0" encoding="UTF-8"?>
<svg version="1.1" xmlns="http://www.w3.org/2000/svg" width="512" height="512">
<path d="M0 0 C1.28616211 0.00563965 2.57232422 0.0112793 3.89746094 0.01708984 C12.89999113 0.13233136 21.09445966 0.67300841 29.75 3.3125 C30.41854004 3.51117676 31.08708008 3.70985352 31.77587891 3.91455078 C52.6847481 10.25416931 70.09835486 22.20687481 84.75 38.3125 C85.08 38.9725 85.41 39.6325 85.75 40.3125 C86.51441406 40.168125 87.27882812 40.02375 88.06640625 39.875 C105.91627525 36.78188191 122.09522641 37.55310584 137.75 47.3125 C139.5977661 48.84677063 141.39679189 50.44092158 143.15332031 52.07885742 C143.9178546 52.79090851 143.9178546 52.79090851 144.69783401 53.51734447 C156.32669344 64.41664964 167.54337316 75.75957772 178.84130859 86.9987793 C181.94620426 90.08582465 185.05941137 93.16410648 188.18017578 96.23510742 C191.98768474 99.98203299 195.77989217 103.74383979 199.56204987 107.51634789 C200.99044479 108.93626593 202.42390743 110.35110738 203.86281586 111.76037025 C217.01933845 124.66000989 226.59667195 137.4509413 228.75 156.3125 C228.84900967 175.38176292 222.91061349 189.48383506 209.75 203.3125 C215.54304712 210.34828 222.03544496 216.60037608 228.58203125 222.9296875 C235.07691176 229.31777625 239.3523642 234.20296013 240.9140625 243.31323242 C241.62881602 247.01181909 242.44550761 250.2737796 244.75 253.3125 C249.20771992 256.0612281 254.21562981 257.00711474 259.28125 258.07421875 C263.70887085 259.09253501 265.92928016 260.63398663 268.75 264.3125 C271.11875832 268.39847007 272.5803966 272.54922125 273.9375 277.0625 C274.28167969 278.19171875 274.62585938 279.3209375 274.98046875 280.484375 C275.75 283.3125 275.75 283.3125 275.75 285.3125 C276.51183594 285.48265625 277.27367187 285.6528125 278.05859375 285.828125 C295.95986667 290.0296722 295.95986667 290.0296722 301.75 297.3125 C302.36791992 299.47607422 302.36791992 299.47607422 302.8203125 301.9375 C304.17175205 309.2192786 305.44259624 315.82184995 311.62890625 320.48046875 C318.40144321 324.31383353 325.49947843 327.23025634 332.81494141 329.88476562 C338.52086117 332.66036193 341.21424864 336.65098469 343.75 342.3125 C344.52836609 345.30271912 344.52836609 345.30271912 345.1003418 348.48217773 C345.32034348 349.68039658 345.54034515 350.87861542 345.76701355 352.11314392 C345.99214127 353.39451736 346.21726898 354.67589081 346.44921875 355.99609375 C346.69091794 357.33849863 346.93326389 358.6807872 347.17622375 360.02296448 C347.68201078 362.82850933 348.18142241 365.63508934 348.67602539 368.44262695 C349.30769823 372.026445 349.95296448 375.6076469 350.60277081 379.18821621 C351.10418951 381.95760053 351.59946121 384.72805637 352.09281349 387.49888802 C352.4423144 389.45740351 352.79602807 391.41516574 353.14982605 393.37290955 C353.46564384 395.17496605 353.46564384 395.17496605 353.7878418 397.01342773 C353.974207 398.06344467 354.1605722 399.11346161 354.35258484 400.19529724 C355.25425735 407.26774011 355.00308888 412.51168943 350.75 418.3125 C346.75582606 422.00659351 342.86889856 422.6022802 337.48297119 422.50402832 C331.85198913 422.1094056 326.3229572 421.04667948 320.7734375 420.046875 C319.43548741 419.80953904 318.09748383 419.57250439 316.75942993 419.33575439 C313.96980454 418.84008815 311.18136477 418.33829126 308.39355469 417.83251953 C304.83779612 417.18830502 301.27893302 416.56348207 297.71884727 415.94369125 C294.95979644 415.46044555 292.20304984 414.96494175 289.44679642 414.46601105 C287.50348484 414.11701598 285.5580733 413.7797792 283.61264038 413.44281006 C282.42095245 413.22288391 281.22926453 413.00295776 280.00146484 412.77636719 C278.44001236 412.49657013 278.44001236 412.49657013 276.84701538 412.21112061 C270.33934924 410.3228759 265.65542072 406.66297634 260.97291565 401.8961792 C260.43607287 401.36189969 259.89923009 400.82762019 259.34611934 400.27715039 C257.56413043 398.50006986 255.79301924 396.71254378 254.02172852 394.92480469 C252.74056887 393.64279813 251.4587469 392.36145318 250.17631531 391.08071899 C246.70728182 387.61254439 243.24756031 384.13521418 239.78946042 380.65614223 C236.17003181 377.01792914 232.54207615 373.38823931 228.9150238 369.75762939 C222.05269129 362.88598164 215.19804049 356.00672402 208.34612936 349.12468648 C200.543105 341.28810196 192.7315358 333.46005882 184.91924393 325.63271475 C168.8533162 309.53544979 152.79812694 293.42751009 136.75 277.3125 C136.27523224 277.72310165 135.80046448 278.13370331 135.31130981 278.55674744 C134.37241409 279.3657827 134.37241409 279.3657827 133.41455078 280.19116211 C132.48583664 280.99268959 132.48583664 280.99268959 131.5383606 281.81040955 C121.14486142 290.54017911 108.20358952 296.40077222 94.54760742 296.33544922 C93.64870285 296.33213593 92.74979828 296.32882263 91.82365417 296.32540894 C91.1393483 296.32114899 90.45504242 296.31688904 89.75 296.3125 C89.75276538 297.24126135 89.75553076 298.1700227 89.75837994 299.12692833 C89.82503583 321.74591004 89.87430445 344.36487897 89.90543652 366.98393822 C89.92089266 377.92243317 89.94195825 388.86086316 89.97631836 399.79931641 C90.00625904 409.33541713 90.02558411 418.87147079 90.03226548 428.40761721 C90.03616982 433.45498457 90.04531951 438.50221733 90.06719017 443.54954147 C90.08762906 448.30519769 90.09381887 453.0606645 90.08932304 457.81636047 C90.09014494 459.55695756 90.09606632 461.29756131 90.10761642 463.03812027 C90.19761534 477.30660274 88.74358381 489.56856062 78.7109375 500.54296875 C70.62728901 508.15530911 62.10908545 512.41538004 51.00976562 512.46640015 C50.33286147 512.4707824 49.65595732 512.47516465 48.95854092 512.4796797 C46.69110773 512.49303019 44.42371337 512.49923819 42.15625 512.50537109 C40.52982916 512.51327525 38.90341007 512.5215444 37.2769928 512.53015137 C31.93467883 512.55634326 26.59235716 512.57167987 21.25 512.5859375 C19.40778601 512.59129904 17.56557206 512.59667655 15.72335815 512.60206985 C8.05588967 512.6236977 0.38842327 512.64243139 -7.27906799 512.65369225 C-18.24874974 512.66991108 -29.21807616 512.70303967 -40.18762398 512.76009309 C-47.91012123 512.79888082 -55.63252382 512.81833558 -63.35511589 512.82361281 C-67.96216607 512.82725523 -72.56883702 512.83915726 -77.17578125 512.87171555 C-81.51630844 512.90195073 -85.85623004 512.90805348 -90.19684029 512.89633179 C-91.78180775 512.89611231 -93.36680457 512.90431191 -94.95167351 512.92198563 C-107.66160627 513.0558969 -118.23335172 510.72020643 -128.21875 502.30859375 C-137.89703085 492.79782161 -141.65772753 480.97229799 -141.78497362 467.58138466 C-141.77605073 466.42192518 -141.76712785 465.26246571 -141.75793457 464.06787109 C-141.76417453 462.80003469 -141.7704145 461.5321983 -141.77684355 460.22594261 C-141.79337925 456.74577628 -141.78536357 453.26605462 -141.77289867 449.78588772 C-141.76378505 446.01756882 -141.77784894 442.24932222 -141.78881836 438.48101807 C-141.80654134 431.11429546 -141.8027915 423.74773651 -141.7911678 416.38100767 C-141.78210913 410.39028304 -141.78091996 404.39960404 -141.78526306 398.40887451 C-141.78587599 397.55402729 -141.78648893 396.69918008 -141.78712043 395.8184284 C-141.78839942 394.08145283 -141.78969628 392.34447728 -141.7910108 390.60750175 C-141.80239837 374.34591767 -141.78933157 358.084424 -141.76780933 341.82285476 C-141.74994 327.89032146 -141.75304463 313.95792151 -141.77148438 300.02539062 C-141.79292337 283.81928884 -141.8012999 267.61326616 -141.78903532 251.40715218 C-141.78776122 249.67680996 -141.78650373 247.94646773 -141.78526306 246.21612549 C-141.78464596 245.3649154 -141.78402886 244.51370532 -141.78339306 243.63670099 C-141.77994923 237.65790737 -141.78574756 231.67916422 -141.79518127 225.70037842 C-141.80643637 218.40742543 -141.80328781 211.11464451 -141.7820583 203.82171106 C-141.77159483 200.10557501 -141.76734485 196.38972511 -141.78065491 192.67359161 C-141.79490209 188.63452502 -141.77781369 184.59617175 -141.75793457 180.55712891 C-141.76685746 179.39766943 -141.77578034 178.23820995 -141.78497362 177.04361534 C-141.65758399 163.63759579 -137.87652923 151.93902923 -128.2890625 142.3515625 C-122.06174176 137.05023741 -114.79856457 134.24387714 -107.25 131.3125 C-107.394375 130.29671875 -107.53875 129.2809375 -107.6875 128.234375 C-111.72192494 98.87451992 -106.67606736 69.40146451 -88.9375 45.0625 C-87.40138059 43.12462629 -85.83815832 41.2079605 -84.25 39.3125 C-83.40566406 38.30445313 -82.56132813 37.29640625 -81.69140625 36.2578125 C-60.99635878 12.29672686 -31.39997081 -0.14373515 0 0 Z M-52.17260742 51.17626953 C-53.54708718 52.53971212 -54.89907776 53.92571256 -56.25 55.3125 C-57.37535156 56.44171875 -57.37535156 56.44171875 -58.5234375 57.59375 C-71.79614766 71.6292596 -78.94679998 91.5482009 -78.4453125 110.85546875 C-77.85753224 118.24974439 -77.12211189 125.44104166 -74.25 132.3125 C-65.1522341 134.53934429 -56.01197891 135.94560258 -46.6875 136.75 C-45.98813324 136.81077728 -45.28876648 136.87155457 -44.56820679 136.93417358 C-26.33082964 138.32830834 -11.99986543 135.04549103 2.26980114 123.26327991 C11.82383303 115.01322796 20.63484971 106.02623313 29.25 96.8125 C30.04421986 95.96349499 30.83843971 95.11448997 31.65672684 94.23975754 C41.64425463 83.51121947 51.32122148 72.53423549 60.75 61.3125 C56.75760296 50.47663692 44.56011194 43.47027548 34.75 38.3125 C5.75376381 25.21420021 -28.73439182 28.66664344 -52.17260742 51.17626953 Z " fill="#FEA81C" transform="translate(149.25,-0.3125)"/>
<path d="M0 0 C2.2024454 0.00934039 4.40490128 0.0164507 6.60736084 0.0214386 C12.3680352 0.04041171 18.1280663 0.0894284 23.88848877 0.1449585 C29.78103945 0.19636093 35.67369537 0.21899729 41.56640625 0.24414062 C53.10184312 0.29755701 64.6368053 0.3827513 76.171875 0.48828125 C75.76168121 0.96223328 75.35148743 1.4361853 74.92886353 1.92449951 C74.12030411 2.86244354 74.12030411 2.86244354 73.29541016 3.81933594 C72.49449448 4.74682648 72.49449448 4.74682648 71.67739868 5.6930542 C61.59217263 17.7189498 58.50275635 29.01010327 59.02587891 44.42871094 C59.03116557 47.30946385 58.96283046 49.71537834 58.171875 52.48828125 C55.7872879 54.79050153 53.11779015 56.02950621 50.171875 57.48828125 C47.17650467 60.48958301 46.74025601 62.66423867 46.734375 66.86328125 C46.88031045 71.83835349 47.70454439 74.73981572 51.171875 78.48828125 C54.81621009 81.00205138 58.11194849 82.16593025 62.421875 83.11328125 C64.13697266 83.49613281 64.13697266 83.49613281 65.88671875 83.88671875 C68.64482859 84.39177097 71.19360944 84.63150413 73.984375 84.73828125 C83.27714984 85.71139556 91.41013818 97.69113583 97.6709919 104.09562492 C100.92694097 107.42122227 104.20036338 110.72957986 107.47070312 114.04101562 C111.60527852 118.22933229 115.73463955 122.42239556 119.8449707 126.63452148 C123.19080671 130.06228872 126.55418451 133.47198535 129.92930412 136.87091255 C131.19891804 138.15577996 132.46228479 139.44685664 133.71869087 140.74464226 C144.58388513 151.95709558 156.33851738 161.14466067 172.39436245 163.04190922 C174.26423116 163.26286337 174.26423116 163.26286337 176.171875 163.48828125 C176.24201514 187.17578867 176.29488773 210.86328048 176.32731152 234.5508709 C176.34276787 245.54989981 176.36383387 256.54886412 176.39819336 267.54785156 C176.42813339 277.13668999 176.44745896 286.72548163 176.45414048 296.31436551 C176.45804493 301.38967821 176.46719531 306.46485707 176.48906517 311.5401268 C176.50950304 316.32204757 176.51569407 321.10377998 176.51119804 325.88574028 C176.51201998 327.63601265 176.51794198 329.38629165 176.52949142 331.13652611 C176.61916966 345.43392909 175.18776802 357.7199385 165.1328125 368.71875 C157.04916401 376.33109036 148.53096045 380.59116129 137.43164062 380.6421814 C136.75473647 380.64656365 136.07783232 380.6509459 135.38041592 380.65546095 C133.11298273 380.66881144 130.84558837 380.67501944 128.578125 380.68115234 C126.95170416 380.6890565 125.32528507 380.69732565 123.6988678 380.70593262 C118.35655383 380.73212451 113.01423216 380.74746112 107.671875 380.76171875 C105.82966101 380.76708029 103.98744706 380.7724578 102.14523315 380.7778511 C94.47776467 380.79947895 86.81029827 380.81821264 79.14280701 380.8294735 C68.17312526 380.84569233 57.20379884 380.87882092 46.23425102 380.93587434 C38.51175377 380.97466207 30.78935118 380.99411683 23.06675911 380.99939406 C18.45970893 381.00303648 13.85303798 381.01493851 9.24609375 381.0474968 C4.90556656 381.07773198 0.56564496 381.08383473 -3.77496529 381.07211304 C-5.35993275 381.07189356 -6.94492957 381.08009316 -8.52979851 381.09776688 C-21.23973127 381.23167815 -31.81147672 378.89598768 -41.796875 370.484375 C-51.47515585 360.97360286 -55.23585253 349.14807924 -55.36309862 335.75716591 C-55.35417573 334.59770643 -55.34525285 333.43824696 -55.33605957 332.24365234 C-55.34229953 330.97581594 -55.3485395 329.70797955 -55.35496855 328.40172386 C-55.37150425 324.92155753 -55.36348857 321.44183587 -55.35102367 317.96166897 C-55.34191005 314.19335007 -55.35597394 310.42510347 -55.36694336 306.65679932 C-55.38466634 299.29007671 -55.3809165 291.92351776 -55.3692928 284.55678892 C-55.36023413 278.56606429 -55.35904496 272.57538529 -55.36338806 266.58465576 C-55.36400099 265.72980854 -55.36461393 264.87496133 -55.36524543 263.99420965 C-55.36652442 262.25723408 -55.36782128 260.52025853 -55.3691358 258.783283 C-55.38052337 242.52169892 -55.36745657 226.26020525 -55.34593433 209.99863601 C-55.328065 196.06610271 -55.33116963 182.13370276 -55.34960938 168.20117188 C-55.37104837 151.99507009 -55.3794249 135.78904741 -55.36716032 119.58293343 C-55.36588622 117.85259121 -55.36462873 116.12224898 -55.36338806 114.39190674 C-55.36277096 113.54069665 -55.36215386 112.68948657 -55.36151806 111.81248224 C-55.35807423 105.83368862 -55.36387256 99.85494547 -55.37330627 93.87615967 C-55.38456137 86.58320668 -55.38141281 79.29042576 -55.3601833 71.99749231 C-55.34971983 68.28135626 -55.34546985 64.56550636 -55.35877991 60.84937286 C-55.37302709 56.81030627 -55.35593869 52.771953 -55.33605957 48.73291016 C-55.34498246 47.57345068 -55.35390534 46.4139912 -55.36309862 45.21939659 C-55.23585253 31.82848326 -51.47515585 20.00295964 -41.796875 10.4921875 C-28.88939091 -0.38096486 -16.06110774 -0.20104739 0 0 Z " fill="#36A7E4" transform="translate(62.828125,131.51171875)"/>
<path d="M0 0 C19.16576098 2.25479541 19.16576098 2.25479541 25 9 C26.48081577 10.51298922 27.98477335 12.00115504 29.48783207 13.49203396 C31.22920665 15.22656388 32.95148156 16.97823951 34.66957092 18.73582458 C38.53289087 22.68777612 42.41542484 26.62053115 46.29882812 30.55273438 C50.43340352 34.74105104 54.56276455 38.93411431 58.6730957 43.14624023 C62.01893171 46.57400747 65.38230951 49.9837041 68.75742912 53.3826313 C70.02704304 54.66749871 71.29040979 55.95857539 72.54681587 57.25636101 C83.41201013 68.46881433 95.16664238 77.65637942 111.22248745 79.55362797 C112.46906659 79.70093074 113.71564573 79.84823351 115 80 C115.07014014 103.68750742 115.12301273 127.37499923 115.15543652 151.06258965 C115.17089287 162.06161856 115.19195887 173.06058287 115.22631836 184.05957031 C115.25625839 193.64840874 115.27558396 203.23720038 115.28226548 212.82608426 C115.28616993 217.90139696 115.29532031 222.97657582 115.31719017 228.05184555 C115.33762804 232.83376632 115.34381907 237.61549873 115.33932304 242.39745903 C115.34014498 244.1477314 115.34606698 245.8980104 115.35761642 247.64824486 C115.44729466 261.94564784 114.01589302 274.23165725 103.9609375 285.23046875 C95.34060325 293.34820401 86.66617178 297.16887222 74.92675781 297.11352539 C74.10356426 297.11364593 73.28037071 297.11376646 72.4322319 297.11389065 C69.77250194 297.11314537 67.1128424 297.10553467 64.453125 297.09765625 C62.80908237 297.09618564 61.16503928 297.09516566 59.52099609 297.09460449 C53.43065691 297.08936543 47.34032776 297.0754042 41.25 297.0625 C27.6375 297.041875 14.025 297.02125 0 297 C0 257.4 0 217.8 0 177 C-7.26 177 -14.52 177 -22 177 C-21.95359375 180.45597656 -21.9071875 183.91195312 -21.859375 187.47265625 C-21.82815082 190.83193494 -21.80387923 194.19119726 -21.78027344 197.55053711 C-21.76019854 199.87938715 -21.73293264 202.20818705 -21.69824219 204.53686523 C-21.64954409 207.89058838 -21.62698935 211.24364317 -21.609375 214.59765625 C-21.58872986 215.63334244 -21.56808472 216.66902863 -21.54681396 217.73609924 C-21.54486302 224.06752552 -22.27480143 227.82883619 -26 233 C-29.1160683 235.96026488 -32.73886994 237.24400188 -37 237.5 C-42.30054447 237.21181506 -46.24486172 234.8721475 -49.875 231 C-51.93411884 227.33934429 -52.12697037 223.93273757 -52.14044189 219.78263855 C-52.14615204 218.7270726 -52.15186218 217.67150665 -52.15774536 216.58395386 C-52.15886322 215.43113922 -52.15998108 214.27832458 -52.16113281 213.09057617 C-52.16609772 211.87228622 -52.17106262 210.65399628 -52.17617798 209.39878845 C-52.18827518 206.0598028 -52.19574173 202.72087968 -52.20018864 199.38187957 C-52.20312361 197.29395959 -52.20722921 195.20604505 -52.21169281 193.11812782 C-52.22536071 186.58008131 -52.23503085 180.0420473 -52.2388947 173.50398749 C-52.24337401 165.96678111 -52.26091883 158.42975621 -52.2898953 150.89260501 C-52.3115382 145.05976308 -52.32160037 139.22697211 -52.32293582 133.39409047 C-52.32398198 129.91350114 -52.32984919 126.43308255 -52.34775543 122.95253563 C-52.36735453 119.06750048 -52.36293673 115.18269076 -52.35644531 111.29760742 C-52.3656601 110.15086548 -52.37487488 109.00412354 -52.3843689 107.82263184 C-52.35270129 101.77231434 -52.00986878 97.30482206 -49 92 C-45.41773313 88.59684647 -42.76002492 87.17255146 -37.8125 86.6875 C-33.24487587 87.06189542 -29.57452259 88.05931028 -26 91 C-21.58294957 97.08509594 -21.46229811 102.02407022 -21.609375 109.40234375 C-21.61503479 110.48004532 -21.62069458 111.55774689 -21.62652588 112.66810608 C-21.6488184 116.09169968 -21.69900329 119.51422564 -21.75 122.9375 C-21.77007413 125.26626087 -21.7883233 127.59503823 -21.8046875 129.92382812 C-21.84524891 135.61662216 -21.92355705 141.30712382 -22 147 C-14.74 147 -7.48 147 0 147 C0 98.49 0 49.98 0 0 Z " fill="#1A82C6" transform="translate(124,215)"/>
<path d="M0 0 C2.95265112 1.32994383 5.02350216 2.77779316 7.29980469 5.07275391 C7.92014587 5.69324615 8.54048706 6.3137384 9.17962646 6.95303345 C9.83706848 7.62079803 10.4945105 8.28856262 11.171875 8.9765625 C12.1955014 10.00443375 12.1955014 10.00443375 13.23980713 11.05307007 C15.41461598 13.23905845 17.58236072 15.43190429 19.75 17.625 C21.2247999 19.10983255 22.70005506 20.59421306 24.17578125 22.078125 C27.78915448 25.7135291 31.39620853 29.35509824 35 33 C33.89653067 35.24173809 32.76202557 37.40381671 31.4921875 39.55859375 C26.66446812 48.15286714 25.38000134 55.37429119 27.73828125 65.01953125 C31.25431663 75.59657595 36.04861375 80.97765975 46 86 C53.59905157 89.57961754 62.18541002 88.93957433 70 86.25 C73.84746637 84.67731302 76.97861723 82.91719716 80 80 C83.38964704 81.46823778 85.59747081 83.35029668 88.19795227 85.95744324 C89.03249782 86.78924008 89.86704336 87.62103693 90.72687817 88.47803974 C91.63854402 89.39689551 92.55020987 90.31575129 93.48950195 91.26245117 C94.47137552 92.2448847 95.45369215 93.22687558 96.43641376 94.20846081 C99.13773233 96.90918759 101.832771 99.61610658 104.52685785 102.3240447 C107.43258519 105.24250696 110.34410644 108.15517852 113.25497437 111.06851196 C118.29888675 116.11820114 123.33923084 121.17142942 128.37728882 126.22695923 C135.66485398 133.53961173 142.95887273 140.8457998 150.25468552 148.15022266 C162.09550005 160.00517649 173.93257333 171.86385794 185.76660156 183.72558594 C186.47505663 184.43569663 187.1835117 185.14580732 187.9134351 185.87743652 C193.66200653 191.6394979 199.41039753 197.40173927 205.15878105 203.16398811 C210.18356917 208.20088091 215.20842932 213.23770184 220.23339844 218.27441406 C220.94099088 218.98366276 221.64858332 219.69291145 222.37761796 220.42365253 C234.16702904 232.24041545 245.96035173 244.05326699 257.75648403 255.86332035 C265.03571557 263.15152447 272.31136262 270.44327261 279.58246303 277.73958898 C284.5625229 282.73647431 289.54609009 287.72984299 294.53245759 292.72043395 C297.41144297 295.60211478 300.28872399 298.48544761 303.16166306 301.3731575 C305.78998146 304.01493816 308.42283538 306.65210746 311.05941713 309.28564036 C312.46735808 310.69438425 313.87032186 312.108097 315.27312183 313.52196026 C316.10766738 314.3537571 316.94221292 315.18555395 317.80204773 316.04255676 C318.52134807 316.76370069 319.2406484 317.48484461 319.98174572 318.22784138 C321.91529863 319.92562668 323.64985472 320.98202614 326 322 C324.87358045 322.85939366 323.72224737 323.6861422 322.5625 324.5 C321.92441406 324.9640625 321.28632813 325.428125 320.62890625 325.90625 C312.85320908 329.14130975 302.97063298 326.16614605 295.0234375 324.734375 C293.68548741 324.49703904 292.34748383 324.26000439 291.00942993 324.02325439 C288.21980454 323.52758815 285.43136477 323.02579126 282.64355469 322.52001953 C279.08779612 321.87580502 275.52893302 321.25098207 271.96884727 320.63119125 C269.20979644 320.14794555 266.45304984 319.65244175 263.69679642 319.15351105 C261.75348484 318.80451598 259.8080733 318.4672792 257.86264038 318.13031006 C256.67095245 317.91038391 255.47926453 317.69045776 254.25146484 317.46386719 C252.69001236 317.18407013 252.69001236 317.18407013 251.09701538 316.89862061 C244.58934924 315.0103759 239.90542072 311.35047634 235.22291565 306.5836792 C234.68607287 306.04939969 234.14923009 305.51512019 233.59611934 304.96465039 C231.81413043 303.18756986 230.04301924 301.40004378 228.27172852 299.61230469 C226.99056887 298.33029813 225.7087469 297.04895318 224.42631531 295.76821899 C220.95728182 292.30004439 217.49756031 288.82271418 214.03946042 285.34364223 C210.42003181 281.70542914 206.79207615 278.07573931 203.1650238 274.44512939 C196.30269129 267.57348164 189.44804049 260.69422402 182.59612936 253.81218648 C174.793105 245.97560196 166.9815358 238.14755882 159.16924393 230.32021475 C143.1033162 214.22294979 127.04812694 198.11501009 111 182 C110.52523224 182.41060165 110.05046448 182.82120331 109.56130981 183.24424744 C108.93537933 183.78360428 108.30944885 184.32296112 107.66455078 184.87866211 C107.04540802 185.41301376 106.42626526 185.94736542 105.7883606 186.49790955 C93.90858484 196.47604137 79.49284668 201.91538237 64 201 C44.39239655 198.35762771 32.01843553 188.75747278 18.55859375 175.01171875 C17.10054692 173.54178547 15.64130264 172.07303909 14.18092346 170.60542297 C10.36494305 166.76484523 6.56381597 162.90991031 2.76617432 159.0512085 C-2.61058902 153.59355343 -8.00771003 148.15601428 -13.40232849 142.71601868 C-16.27098813 139.82310909 -19.13405988 136.92483849 -21.99281311 134.0221405 C-23.29150079 132.70704864 -24.59020106 131.39196921 -25.88891602 130.0769043 C-26.48159271 129.4727771 -27.07426941 128.8686499 -27.68490601 128.24621582 C-32.11997307 123.76328669 -34.29500055 122.89388037 -40.5 122.125 C-49.58573251 120.84964615 -57.41480405 119.74982584 -64 113 C-66.88586276 108.31047302 -66.85831069 103.33056115 -66 98 C-63.78776261 93.69757969 -61.32175907 91.48721776 -56.7890625 89.81640625 C-55.86867188 89.54699219 -54.94828125 89.27757812 -54 89 C-54.02618408 88.37134033 -54.05236816 87.74268066 -54.0793457 87.0949707 C-54.93210993 63.49175227 -54.93210993 63.49175227 -49 53 C-48.32517578 51.7934375 -48.32517578 51.7934375 -47.63671875 50.5625 C-35.5058267 31.50414763 -15.95740191 15.84437683 0 0 Z " fill="#FECE2C" transform="translate(175,95)"/>
<path d="M0 0 C1.28616211 0.00563965 2.57232422 0.0112793 3.89746094 0.01708984 C12.89999113 0.13233136 21.09445966 0.67300841 29.75 3.3125 C30.41854004 3.51117676 31.08708008 3.70985352 31.77587891 3.91455078 C47.6577256 8.72996421 61.10055841 16.60881257 73.75 27.3125 C74.67425781 28.0859375 75.59851563 28.859375 76.55078125 29.65625 C88.97833739 41.02269788 98.30447648 57.46778317 103.75 73.3125 C103.98686523 73.95670898 104.22373047 74.60091797 104.46777344 75.26464844 C112.14794383 96.6702219 111.63750968 123.93416535 103.4375 145.125 C103.15455078 145.90552734 102.87160156 146.68605469 102.58007812 147.49023438 C100.13306641 153.99570454 97.08324865 160.66511239 91.75 165.3125 C86.19501864 167.16416045 80.73905605 167.19652491 75.375 164.8125 C71.56956839 161.18827942 69.05239909 157.56026625 68.5546875 152.21484375 C68.90188869 146.58814207 71.04609 141.76079698 73.3984375 136.6953125 C77.06105779 127.52817617 78.30485447 119.03879973 78.25 109.1875 C78.24500488 108.00478516 78.24000977 106.82207031 78.23486328 105.60351562 C77.95216059 91.30850785 74.41419609 79.46876657 66.75 67.3125 C66.069375 66.19875 65.38875 65.085 64.6875 63.9375 C62.5633842 61.0596657 60.36728573 58.75909318 57.75 56.3125 C57.06164062 55.6421875 56.37328125 54.971875 55.6640625 54.28125 C40.16656001 39.63636091 21.0699603 31.51728084 -0.25 31.3125 C-22.3538075 32.31745768 -40.87636446 40.5202178 -56.25 56.3125 C-57.26513672 57.33150391 -57.26513672 57.33150391 -58.30078125 58.37109375 C-71.18386139 72.11114152 -77.90102436 92.12291301 -77.44921875 110.85546875 C-76.86396166 118.0736395 -75.66912867 125.21685666 -74.25 132.3125 C-84.81 132.3125 -95.37 132.3125 -106.25 132.3125 C-107.96118915 126.32333797 -108.87804209 121.42323713 -109.25 115.3125 C-109.30414063 114.46429688 -109.35828125 113.61609375 -109.4140625 112.7421875 C-110.2511364 86.0319203 -101.38541714 59.7635507 -84.25 39.3125 C-83.40566406 38.30445313 -82.56132813 37.29640625 -81.69140625 36.2578125 C-60.99635878 12.29672686 -31.39997081 -0.14373515 0 0 Z " fill="#FEE545" transform="translate(149.25,-0.3125)"/>
<path d="M0 0 C3.60201662 2.96330852 5.60892405 6.50166683 6.24467468 11.08030701 C6.35602749 14.04842414 6.344352 16.99131776 6.28515625 19.9609375 C6.27949646 21.03863907 6.27383667 22.11634064 6.26800537 23.22669983 C6.24571285 26.65029343 6.19552796 30.07281939 6.14453125 33.49609375 C6.12445712 35.82485462 6.10620795 38.15363198 6.08984375 40.48242188 C6.04928234 46.17521591 5.9709742 51.86571757 5.89453125 57.55859375 C20.08453125 57.55859375 34.27453125 57.55859375 48.89453125 57.55859375 C48.848125 54.10261719 48.80171875 50.64664063 48.75390625 47.0859375 C48.72268207 43.72665881 48.69841048 40.36739649 48.67480469 37.00805664 C48.65472979 34.6792066 48.62746389 32.3504067 48.59277344 30.02172852 C48.54407534 26.66800537 48.5215206 23.31495058 48.50390625 19.9609375 C48.48326111 18.92525131 48.46261597 17.88956512 48.44134521 16.82249451 C48.43939427 10.49106823 49.16933268 6.72975756 52.89453125 1.55859375 C56.04752925 -1.43675435 59.64532509 -2.68104593 63.95703125 -2.87890625 C69.41391544 -2.27258578 72.51666678 -0.96822904 76.20703125 3.12109375 C78.6436285 6.64062311 79.02156553 8.41177694 79.03497314 12.65606689 C79.04068329 13.73557114 79.04639343 14.81507538 79.05227661 15.92729187 C79.0539534 17.71173454 79.0539534 17.71173454 79.05566406 19.53222656 C79.06311142 21.40552391 79.06311142 21.40552391 79.07070923 23.31666565 C79.08283252 26.74867444 79.09028016 30.18062218 79.09471989 33.61264515 C79.09765003 35.75716478 79.10175479 37.90167905 79.10622406 40.04619598 C79.11990298 46.75670861 79.12956696 53.46720901 79.13342595 60.17773461 C79.13790391 67.92212087 79.15543781 75.66633037 79.18442655 83.41066289 C79.20605653 89.39716301 79.21613098 95.38361346 79.21746707 101.37015224 C79.21851442 104.94519386 79.2244068 108.52006943 79.24228668 112.09506989 C79.26185709 116.08589857 79.2574731 120.0765073 79.25097656 124.06738281 C79.26019135 125.24891434 79.26940613 126.43044586 79.27890015 127.64778137 C79.22738806 137.73702522 79.22738806 137.73702522 75.89453125 142.55859375 C71.50081251 146.62278358 68.0628831 147.95032513 62.01953125 147.828125 C58.28116904 147.35395773 55.73537811 145.9898174 52.89453125 143.55859375 C48.46708426 137.55766177 48.35632983 131.48742383 48.50390625 124.27734375 C48.50956604 123.22325317 48.51522583 122.1691626 48.52105713 121.08312988 C48.54331391 117.74114121 48.59349148 114.40025428 48.64453125 111.05859375 C48.66461002 108.78256765 48.68285837 106.50652462 48.69921875 104.23046875 C48.73972932 98.67241888 48.81804316 93.11672855 48.89453125 87.55859375 C34.70453125 87.55859375 20.51453125 87.55859375 5.89453125 87.55859375 C5.9409375 91.01457031 5.98734375 94.47054687 6.03515625 98.03125 C6.06638043 101.39052869 6.09065202 104.74979101 6.11425781 108.10913086 C6.13433271 110.4379809 6.16159861 112.7667808 6.19628906 115.09545898 C6.24498716 118.44918213 6.2675419 121.80223692 6.28515625 125.15625 C6.30580139 126.19193619 6.32644653 127.22762238 6.34771729 128.29469299 C6.34966823 134.62611927 5.61972982 138.38742994 1.89453125 143.55859375 C-1.22153705 146.51885863 -4.84433869 147.80259563 -9.10546875 148.05859375 C-14.40601322 147.77040881 -18.35033047 145.43074125 -21.98046875 141.55859375 C-24.03958759 137.89793804 -24.23243912 134.49133132 -24.24591064 130.3412323 C-24.25162079 129.28566635 -24.25733093 128.2301004 -24.26321411 127.14254761 C-24.26433197 125.98973297 -24.26544983 124.83691833 -24.26660156 123.64916992 C-24.27156647 122.43087997 -24.27653137 121.21259003 -24.28164673 119.9573822 C-24.29374393 116.61839655 -24.30121048 113.27947343 -24.30565739 109.94047332 C-24.30859236 107.85255334 -24.31269796 105.7646388 -24.31716156 103.67672157 C-24.33082946 97.13867506 -24.3404996 90.60064105 -24.34436345 84.06258124 C-24.34884276 76.52537486 -24.36638758 68.98834996 -24.39536405 61.45119876 C-24.41700695 55.61835683 -24.42706912 49.78556586 -24.42840457 43.95268422 C-24.42945073 40.47209489 -24.43531794 36.9916763 -24.45322418 33.51112938 C-24.47282328 29.62609423 -24.46840548 25.74128451 -24.46191406 21.85620117 C-24.47112885 20.70945923 -24.48034363 19.56271729 -24.48983765 18.38122559 C-24.45817004 12.33090809 -24.11533753 7.86341581 -21.10546875 2.55859375 C-14.53488953 -3.68345651 -7.93014326 -3.63397604 0 0 Z " fill="#006099" transform="translate(96.10546875,304.44140625)"/>
<path d="M0 0 C1.03634583 0.00465271 1.03634583 0.00465271 2.09362793 0.00939941 C3.78248867 0.01743118 5.47132807 0.02975914 7.16015625 0.04296875 C7.18481247 4.29711498 7.20299524 8.55122373 7.21508789 12.80541992 C7.22012726 14.25366948 7.22695878 15.70191392 7.2355957 17.15014648 C7.24767872 19.22771463 7.25338836 21.30521572 7.2578125 23.3828125 C7.26304932 24.63441162 7.26828613 25.88601074 7.27368164 27.17553711 C7.16015625 30.04296875 7.16015625 30.04296875 6.16015625 31.04296875 C4.32125003 31.25669663 2.48136528 31.46418401 0.63818359 31.63720703 C-19.54260749 33.56021143 -35.77921066 41.59944399 -49.83984375 56.04296875 C-50.85498047 57.06197266 -50.85498047 57.06197266 -51.890625 58.1015625 C-64.77370514 71.84161027 -71.49086811 91.85338176 -71.0390625 110.5859375 C-70.45380541 117.80410825 -69.25897242 124.94732541 -67.83984375 132.04296875 C-78.39984375 132.04296875 -88.95984375 132.04296875 -99.83984375 132.04296875 C-101.5510329 126.05380672 -102.46788584 121.15370588 -102.83984375 115.04296875 C-102.89398438 114.19476563 -102.948125 113.3465625 -103.00390625 112.47265625 C-103.84098015 85.76238905 -94.97526089 59.49401945 -77.83984375 39.04296875 C-76.99550781 38.03492188 -76.15117188 37.026875 -75.28125 35.98828125 C-60.4416609 18.80674708 -40.77431542 7.54460513 -18.83984375 2.04296875 C-17.87949219 1.79933594 -16.91914062 1.55570312 -15.9296875 1.3046875 C-10.60918032 0.15282512 -5.42885563 -0.04668509 0 0 Z " fill="#FFF565" transform="translate(142.83984375,-0.04296875)"/>
<path d="M0 0 C3.5677811 2.35149209 5.84221079 4.99692157 7.75 8.8125 C7.84938564 10.50939451 7.88507228 12.21017914 7.89044189 13.90997314 C7.89615204 14.98947739 7.90186218 16.06898163 7.90774536 17.18119812 C7.90886322 18.37082657 7.90998108 19.56045502 7.91113281 20.78613281 C7.91858017 22.65943016 7.91858017 22.65943016 7.92617798 24.5705719 C7.93830127 28.00258069 7.94574891 31.43452843 7.95018864 34.8665514 C7.95311878 37.01107103 7.95722354 39.1555853 7.96169281 41.30010223 C7.97537173 48.01061486 7.98503571 54.72111526 7.9888947 61.43164086 C7.99337266 69.17602712 8.01090656 76.92023662 8.0398953 84.66456914 C8.06152528 90.65106926 8.07159973 96.63751971 8.07293582 102.62405849 C8.07398317 106.19910011 8.07987555 109.77397568 8.09775543 113.34897614 C8.11732584 117.33980482 8.11294185 121.33041355 8.10644531 125.32128906 C8.12026749 127.09358635 8.12026749 127.09358635 8.1343689 128.90168762 C8.08285681 138.99093147 8.08285681 138.99093147 4.75 143.8125 C0.35628126 147.87668983 -3.08164815 149.20423138 -9.125 149.08203125 C-12.86336221 148.60786398 -15.40915314 147.24372365 -18.25 144.8125 C-22.67744699 138.81156802 -22.78820142 132.74133008 -22.640625 125.53125 C-22.63496521 124.47715942 -22.62930542 123.42306885 -22.62347412 122.33703613 C-22.60121734 118.99504746 -22.55103977 115.65416053 -22.5 112.3125 C-22.47992123 110.0364739 -22.46167288 107.76043087 -22.4453125 105.484375 C-22.40480193 99.92632513 -22.32648809 94.3706348 -22.25 88.8125 C-29.18 88.8125 -36.11 88.8125 -43.25 88.8125 C-43.25 78.9125 -43.25 69.0125 -43.25 58.8125 C-36.32 58.8125 -29.39 58.8125 -22.25 58.8125 C-22.29640625 55.35652344 -22.3428125 51.90054688 -22.390625 48.33984375 C-22.42184918 44.98056506 -22.44612077 41.62130274 -22.46972656 38.26196289 C-22.48980146 35.93311285 -22.51706736 33.60431295 -22.55175781 31.27563477 C-22.60045591 27.92191162 -22.62301065 24.56885683 -22.640625 21.21484375 C-22.66127014 20.17915756 -22.68191528 19.14347137 -22.70318604 18.07640076 C-22.70513698 11.74497448 -21.97519857 7.98366381 -18.25 2.8125 C-13.03108336 -2.1454708 -6.565322 -2.39886766 0 0 Z " fill="#00213B" transform="translate(167.25,303.1875)"/>
<path d="M0 0 C5.62337191 1.8744573 8.32316135 8.89422831 11 14 C12.91726799 18.2611281 14.5835897 22.5476405 16 27 C16.37125 28.15886719 16.7425 29.31773438 17.125 30.51171875 C18.59281661 36.57025833 18.20998428 42.80922229 18.125 49 C18.11597656 50.25167969 18.10695312 51.50335938 18.09765625 52.79296875 C18.07422716 55.8621801 18.04142147 58.93098756 18 62 C17.67 61.34 17.34 60.68 17 60 C11.20319036 62.15375536 5.99173224 64.32188151 1 68 C-1.95265112 66.67005617 -4.02350216 65.22220684 -6.29980469 62.92724609 C-6.92014587 62.30675385 -7.54048706 61.6862616 -8.17962646 61.04696655 C-8.83706848 60.37920197 -9.4945105 59.71143738 -10.171875 59.0234375 C-11.1955014 57.99556625 -11.1955014 57.99556625 -12.23980713 56.94692993 C-14.41461598 54.76094155 -16.58236072 52.56809571 -18.75 50.375 C-20.2247999 48.89016745 -21.70005506 47.40578694 -23.17578125 45.921875 C-26.78915448 42.2864709 -30.39620853 38.64490176 -34 35 C-29.97251947 30.16701194 -25.75620587 25.61889996 -21.2890625 21.19140625 C-20.36956314 20.27402931 -20.36956314 20.27402931 -19.43148804 19.33811951 C-17.49835436 17.41052441 -15.56175013 15.48646072 -13.625 13.5625 C-12.30315301 12.24567596 -10.98153628 10.92862074 -9.66015625 9.61132812 C-6.44275701 6.40487627 -3.22224319 3.20158371 0 0 Z " fill="#FEA81C" transform="translate(210,60)"/>
<path d="M0 0 C0.34429189 5.73320848 -0.72621572 9.83799124 -2.875 15.125 C-3.14441406 15.81464844 -3.41382813 16.50429687 -3.69140625 17.21484375 C-4.812207 20.0742525 -5.95859819 22.90657707 -7.203125 25.71484375 C-8.5524416 29.58420752 -7.95986132 33.07768898 -7 37 C-4.86300673 41.05291827 -3.2467472 43.3196324 1 45 C5.42681828 45.55425204 9.59616345 45.49914189 13.8125 44 C23.21474568 35.4036611 26.34996155 20.95749058 29 9 C29.66 9 30.32 9 31 9 C32.4375 10.9765625 32.4375 10.9765625 34 13.625 C34.515625 14.48351562 35.03125 15.34203125 35.5625 16.2265625 C39.59324976 24.00328078 40.46155902 32.29596968 38.27734375 40.8203125 C34.38763368 51.11938287 28.78267603 57.19450033 18.875 62.0390625 C11.45637341 64.95741928 3.20106608 65.52541647 -4.32421875 62.79296875 C-14.97115167 57.62010466 -20.83407991 51.62698931 -25.375 40.6875 C-27.25819348 29.57665847 -26.13777725 21.57268011 -20 12 C-17.33122363 8.25706882 -14.86833789 6.01487821 -10.875 3.75 C-10.00617188 3.24984375 -9.13734375 2.7496875 -8.2421875 2.234375 C-4.87239695 0.37922899 -4.09206389 0 0 0 Z " fill="#036197" transform="translate(227,120)"/>
<path d="M0 0 C0.66 0 1.32 0 2 0 C3.4375 1.9765625 3.4375 1.9765625 5 4.625 C5.515625 5.48351562 6.03125 6.34203125 6.5625 7.2265625 C10.591147 14.99922383 11.50074808 23.34511933 9.2421875 31.85546875 C7.39764682 36.65563171 5.04559824 40.8666881 2 45 C-2.31730413 44.52590352 -4.33647461 41.96603297 -7.25 38.9375 C-8.14203125 38.01839844 -9.0340625 37.09929687 -9.953125 36.15234375 C-10.62859375 35.44207031 -11.3040625 34.73179687 -12 34 C-10.44488431 30.0415237 -8.76436043 26.14739029 -7.0625 22.25 C-3.92448951 14.97521847 -1.01355494 7.90572855 0 0 Z " fill="#06263C" transform="translate(256,129)"/>
<path d="M0 0 C0.62621031 6.88831341 -1.64193933 12.58902255 -4 19 C-7 19 -7 19 -9.48046875 16.8125 C-10.37378906 15.884375 -11.26710937 14.95625 -12.1875 14 C-13.08855469 13.071875 -13.98960937 12.14375 -14.91796875 11.1875 C-15.94857422 10.1046875 -15.94857422 10.1046875 -17 9 C-14.16342703 6.02529826 -11.65499525 3.48342713 -7.9375 1.6875 C-7.28652344 1.36136719 -6.63554687 1.03523438 -5.96484375 0.69921875 C-4 0 -4 0 0 0 Z " fill="#05263D" transform="translate(227,120)"/>
<path d="M0 0 C2.178121 2.90416133 4.22456097 5.8074678 6.25 8.8125 C9.07505672 12.88443676 12.09755379 16.34386893 15.71484375 19.72265625 C16.13894531 20.14417969 16.56304687 20.56570312 17 21 C17 21.33 17 21.66 17 22 C10.20853974 22.21560191 6.03641701 21.56364822 -1 20 C-0.67 13.4 -0.34 6.8 0 0 Z " fill="#FBA91F" transform="translate(124,195)"/>
<path d="M0 0 C4.95 0 9.9 0 15 0 C14.154375 0.928125 13.30875 1.85625 12.4375 2.8125 C8.99114884 6.80732034 6.26648434 11.15270012 3.515625 15.64453125 C2 18 2 18 0 20 C0 13.4 0 6.8 0 0 Z " fill="#2084C2" transform="translate(124,132)"/>
</svg>
